<svg xmlns="http://www.w3.org/2000/svg" viewBox="0 0 128 128" role="img" aria-label="Draken">
  
  <circle cx="64" cy="64" r="62" fill="#14532d"></circle>
  <radialGradient id="dg" cx="50%" cy="40%" r="55%">
    <stop offset="0%" stop-color="#22c55e" stop-opacity="0.4"></stop>
    <stop offset="100%" stop-color="#14532d" stop-opacity="0"></stop>
  </radialGradient>
  <circle cx="64" cy="64" r="62" fill="url(#dg)"></circle>
  
  <path d="M30,55 Q10,30 8,15 Q20,25 35,45Z" fill="#166534" opacity="0.9"></path>
  <path d="M30,55 Q12,40 10,20 Q25,35 36,50Z" fill="#15803d" opacity="0.7"></path>
  <path d="M98,55 Q118,30 120,15 Q108,25 93,45Z" fill="#166534" opacity="0.9"></path>
  <path d="M98,55 Q116,40 118,20 Q103,35 92,50Z" fill="#15803d" opacity="0.7"></path>
  
  <line x1="30" y1="55" x2="12" y2="18" stroke="#4ade80" stroke-width="0.8" opacity="0.5"></line>
  <line x1="33" y1="50" x2="15" y2="22" stroke="#4ade80" stroke-width="0.8" opacity="0.4"></line>
  <line x1="98" y1="55" x2="116" y2="18" stroke="#4ade80" stroke-width="0.8" opacity="0.5"></line>
  <line x1="95" y1="50" x2="113" y2="22" stroke="#4ade80" stroke-width="0.8" opacity="0.4"></line>
  
  <ellipse cx="64" cy="92" rx="30" ry="28" fill="#16a34a"></ellipse>
  
  <ellipse cx="64" cy="96" rx="18" ry="20" fill="#86efac"></ellipse>
  
  <path d="M56,84 Q64,80 72,84" stroke="#4ade80" stroke-width="1" fill="none" opacity="0.6"></path>
  <path d="M54,90 Q64,86 74,90" stroke="#4ade80" stroke-width="1" fill="none" opacity="0.6"></path>
  <path d="M55,96 Q64,92 73,96" stroke="#4ade80" stroke-width="1" fill="none" opacity="0.6"></path>
  <path d="M57,102 Q64,98 71,102" stroke="#4ade80" stroke-width="1" fill="none" opacity="0.6"></path>
  
  <path d="M90,100 Q110,110 115,125 Q105,118 95,115 Q88,108 85,98Z" fill="#16a34a"></path>
  
  <polygon points="108,118 115,110 110,122" fill="#4ade80"></polygon>
  <polygon points="114,122 120,115 116,126" fill="#4ade80"></polygon>
  
  <path d="M34,80 Q22,88 18,100 Q26,98 32,94 Q34,88 38,82Z" fill="#16a34a"></path>
  <path d="M94,80 Q106,88 110,100 Q102,98 96,94 Q94,88 90,82Z" fill="#16a34a"></path>
  
  <path d="M18,100 L12,108 M20,102 L16,112 M24,104 L22,114" stroke="#4ade80" stroke-width="2.5" stroke-linecap="round"></path>
  <path d="M110,100 L116,108 M108,102 L112,112 M104,104 L106,114" stroke="#4ade80" stroke-width="2.5" stroke-linecap="round"></path>
  
  <rect x="52" y="54" width="24" height="24" rx="10" fill="#16a34a"></rect>
  
  <ellipse cx="64" cy="44" rx="26" ry="24" fill="#16a34a"></ellipse>
  
  <polygon points="46,28 38,10 52,26" fill="#4ade80"></polygon>
  <polygon points="82,28 90,10 76,26" fill="#4ade80"></polygon>
  
  <path d="M48,32 Q56,28 64,30 Q72,28 80,32" stroke="#4ade80" stroke-width="1" fill="none" opacity="0.7"></path>
  
  <ellipse cx="53" cy="42" rx="8" ry="7" fill="#fef08a"></ellipse>
  <ellipse cx="75" cy="42" rx="8" ry="7" fill="#fef08a"></ellipse>
  <ellipse cx="53" cy="43" rx="4" ry="6" fill="#111"></ellipse>
  <ellipse cx="75" cy="43" rx="4" ry="6" fill="#111"></ellipse>
  <circle cx="51" cy="40" r="1.5" fill="white"></circle>
  <circle cx="73" cy="40" r="1.5" fill="white"></circle>
  
  <ellipse cx="64" cy="56" rx="12" ry="8" fill="#15803d"></ellipse>
  
  <circle cx="59" cy="56" r="2.5" fill="#111"></circle>
  <circle cx="69" cy="56" r="2.5" fill="#111"></circle>
  
  <path d="M55,62 Q64,68 73,62" stroke="#4ade80" stroke-width="2" fill="none" stroke-linecap="round"></path>
  
  <path d="M64,64 Q70,70 68,78" stroke="#f97316" stroke-width="2" fill="none" opacity="0.5" stroke-linecap="round"></path>
  <path d="M64,64 Q72,72 74,80" stroke="#fbbf24" stroke-width="1.5" fill="none" opacity="0.4" stroke-linecap="round"></path>
  
  <polygon points="52,32 48,22 56,30" fill="#4ade80"></polygon>
  <polygon points="64,28 62,18 66,28" fill="#4ade80"></polygon>
  <polygon points="76,32 80,22 72,30" fill="#4ade80"></polygon>
</svg>