<svg xmlns="http://www.w3.org/2000/svg" viewBox="0 0 128 128" role="img" aria-label="Anden">
  
  <circle cx="64" cy="64" r="62" fill="#78350f"></circle>
  <radialGradient id="genbg" cx="50%" cy="40%" r="60%">
    <stop offset="0%" stop-color="#fbbf24" stop-opacity="0.5"></stop>
    <stop offset="100%" stop-color="#78350f" stop-opacity="0"></stop>
  </radialGradient>
  <circle cx="64" cy="64" r="62" fill="url(#genbg)"></circle>
  
  <path d="M14,22 L16,16 L18,22 L24,24 L18,26 L16,32 L14,26 L8,24Z" fill="#fde68a" opacity="0.7"></path>
  <path d="M104,14 L106,8 L108,14 L114,16 L108,18 L106,24 L104,18 L98,16Z" fill="#fde68a" opacity="0.6"></path>
  <circle cx="18" cy="80" r="2" fill="#fbbf24" opacity="0.5"></circle>
  <circle cx="112" cy="88" r="2" fill="#fbbf24" opacity="0.5"></circle>
  
  <path d="M40,120 Q50,112 64,116 Q78,112 88,120 Q80,128 64,126 Q48,128 40,120Z" fill="#b45309"></path>
  <path d="M50,116 Q64,110 78,116" fill="none" stroke="#fbbf24" stroke-width="2"></path>
  
  <path d="M44,90 Q30,100 28,118 Q40,114 50,104 Q58,97 62,88Z" fill="#2563eb" opacity="0.8"></path>
  <path d="M84,90 Q98,100 100,118 Q88,114 78,104 Q70,97 66,88Z" fill="#2563eb" opacity="0.8"></path>
  <path d="M44,98 Q36,110 36,122 Q46,116 52,108Z" fill="#1d4ed8"></path>
  <path d="M84,98 Q92,110 92,122 Q82,116 76,108Z" fill="#1d4ed8"></path>
  
  <path d="M48,90 Q36,98 34,112" fill="none" stroke="#60a5fa" stroke-width="2" opacity="0.5"></path>
  <path d="M80,90 Q92,98 94,112" fill="none" stroke="#60a5fa" stroke-width="2" opacity="0.5"></path>
  
  <ellipse cx="64" cy="86" rx="26" ry="20" fill="#2563eb"></ellipse>
  
  <path d="M50,76 Q64,70 78,76 L76,92 Q64,88 52,92Z" fill="#fbbf24" opacity="0.3"></path>
  
  <rect x="48" y="85" width="32" height="7" rx="3" fill="#d97706"></rect>
  <circle cx="64" cy="88" r="5" fill="#1d4ed8"></circle>
  <circle cx="64" cy="88" r="3" fill="#60a5fa"></circle>
  
  <path d="M38,80 Q18,84 14,100 Q24,106 34,98 Q40,92 42,84Z" fill="#2563eb"></path>
  <path d="M90,80 Q110,84 114,100 Q104,106 94,98 Q88,92 86,84Z" fill="#2563eb"></path>
  <ellipse cx="12" cy="102" rx="10" ry="8" fill="#fbbf24"></ellipse>
  <ellipse cx="116" cy="102" rx="10" ry="8" fill="#fbbf24"></ellipse>
  
  <ellipse cx="24" cy="98" rx="6" ry="3" fill="none" stroke="#fbbf24" stroke-width="2.5"></ellipse>
  <ellipse cx="104" cy="98" rx="6" ry="3" fill="none" stroke="#fbbf24" stroke-width="2.5"></ellipse>
  
  <rect x="57" y="60" width="14" height="18" rx="5" fill="#2563eb"></rect>
  
  <ellipse cx="64" cy="48" rx="24" ry="26" fill="#2563eb"></ellipse>
  
  <path d="M40,36 Q44,20 64,18 Q84,20 88,36Z" fill="#fbbf24"></path>
  
  <path d="M42,32 Q64,26 86,32" fill="none" stroke="#d97706" stroke-width="2"></path>
  <path d="M44,36 Q64,30 84,36" fill="none" stroke="#d97706" stroke-width="1.5"></path>
  
  <ellipse cx="64" cy="22" rx="8" ry="5" fill="#dc2626"></ellipse>
  <ellipse cx="64" cy="22" rx="5" ry="3" fill="#f87171"></ellipse>
  
  <path d="M85,28 Q96,14 92,6 Q86,16 80,26" fill="#4ade80" stroke="#16a34a" stroke-width="0.5"></path>
  <path d="M85,28 Q94,18 92,10" fill="none" stroke="#86efac" stroke-width="1" opacity="0.5"></path>
  
  <path d="M50,66 Q52,72 54,78 Q60,82 64,82 Q68,82 74,78 Q76,72 78,66Z" fill="#1d4ed8"></path>
  <path d="M56,70 L54,84 Q60,86 64,86 Q68,86 74,84 L72,70" fill="#1d4ed8" opacity="0.7"></path>
  
  <path d="M64,85 Q62,92 64,96 Q66,92 64,88" stroke="#1d4ed8" stroke-width="2" fill="none" stroke-linecap="round"></path>
  
  <ellipse cx="52" cy="46" rx="7.5" ry="7" fill="#fef3c7"></ellipse>
  <ellipse cx="76" cy="46" rx="7.5" ry="7" fill="#fef3c7"></ellipse>
  <circle cx="52" cy="46" r="5.5" fill="#d97706"></circle>
  <circle cx="76" cy="46" r="5.5" fill="#d97706"></circle>
  <circle cx="52" cy="46" r="3" fill="#111"></circle>
  <circle cx="76" cy="46" r="3" fill="#111"></circle>
  <circle cx="53.5" cy="44.5" r="2" fill="white"></circle>
  <circle cx="77.5" cy="44.5" r="2" fill="white"></circle>
  
  <path d="M44,39 Q52,34 58,38" stroke="#1d4ed8" stroke-width="3" fill="none" stroke-linecap="round"></path>
  <path d="M70,38 Q76,34 84,39" stroke="#1d4ed8" stroke-width="3" fill="none" stroke-linecap="round"></path>
  
  <ellipse cx="64" cy="53" rx="4" ry="3" fill="#1d4ed8" opacity="0.5"></ellipse>
  
  <path d="M54,60 Q64,68 74,60" stroke="#fbbf24" stroke-width="2.5" fill="none" stroke-linecap="round"></path>
</svg>