<svg xmlns="http://www.w3.org/2000/svg" viewBox="0 0 128 128" role="img" aria-label="Rockstjärnan">
  
  <circle cx="64" cy="64" r="62" fill="#111827"></circle>
  <radialGradient id="rsbg" cx="50%" cy="30%" r="55%">
    <stop offset="0%" stop-color="#ef4444" stop-opacity="0.4"></stop>
    <stop offset="100%" stop-color="#111827" stop-opacity="0"></stop>
  </radialGradient>
  <circle cx="64" cy="64" r="62" fill="url(#rsbg)"></circle>
  
  <path d="M10,0 L28,40 L2,40Z" fill="#fbbf24" opacity="0.08"></path>
  <path d="M64,0 L80,35 L48,35Z" fill="#fbbf24" opacity="0.06"></path>
  <path d="M118,0 L100,40 L126,40Z" fill="#fbbf24" opacity="0.08"></path>
  
  <circle cx="16" cy="22" r="2" fill="#ef4444" opacity="0.7"></circle>
  <circle cx="108" cy="18" r="2" fill="#fbbf24" opacity="0.6"></circle>
  <circle cx="112" cy="90" r="1.5" fill="#ef4444" opacity="0.5"></circle>
  <circle cx="14" cy="85" r="1.5" fill="#fbbf24" opacity="0.6"></circle>
  
  <path d="M88,50 Q102,60 100,80 Q98,90 90,88 Q82,86 82,76 Q82,66 88,50Z" fill="#92400e" opacity="0.6"></path>
  <ellipse cx="90" cy="78" rx="8" ry="10" fill="#b45309" opacity="0.7"></ellipse>
  <circle cx="90" cy="78" r="3" fill="#78350f" opacity="0.7"></circle>
  
  <path d="M36,128 Q40,88 52,78 Q58,75 64,75 Q70,75 76,78 Q88,88 92,128Z" fill="#1c1917"></path>
  
  <path d="M64,75 L52,78 L48,110 L64,108Z" fill="#292524"></path>
  <path d="M64,75 L76,78 L80,110 L64,108Z" fill="#292524"></path>
  
  <path d="M56,82 Q64,78 72,82 L70,108 Q64,104 58,108Z" fill="#dc2626"></path>
  
  <polygon points="62,86 59,94 63,94 60,104 70,92 65,92 68,86" fill="#fbbf24"></polygon>
  
  <circle cx="44" cy="82" r="2" fill="#9ca3af"></circle>
  <circle cx="44" cy="88" r="2" fill="#9ca3af"></circle>
  <circle cx="44" cy="94" r="2" fill="#9ca3af"></circle>
  <circle cx="84" cy="82" r="2" fill="#9ca3af"></circle>
  <circle cx="84" cy="88" r="2" fill="#9ca3af"></circle>
  <circle cx="84" cy="94" r="2" fill="#9ca3af"></circle>
  
  <path d="M46,100 Q55,97 64,100 Q73,97 82,100" fill="none" stroke="#9ca3af" stroke-width="2.5" stroke-dasharray="3,3"></path>
  
  <rect x="12" y="76" width="22" height="32" rx="8" fill="#1c1917"></rect>
  <rect x="94" y="76" width="22" height="32" rx="8" fill="#1c1917"></rect>
  
  <ellipse cx="23" cy="108" rx="11" ry="8" fill="#374151"></ellipse>
  <ellipse cx="105" cy="108" rx="11" ry="8" fill="#374151"></ellipse>
  
  <line x1="18" y1="104" x2="14" y2="98" stroke="#4b5563" stroke-width="2" stroke-linecap="round"></line>
  <line x1="28" y1="104" x2="32" y2="98" stroke="#4b5563" stroke-width="2" stroke-linecap="round"></line>
  
  <rect x="57" y="60" width="14" height="18" rx="5" fill="#fbbf24"></rect>
  
  <ellipse cx="64" cy="48" rx="24" ry="26" fill="#fbbf24"></ellipse>
  
  <path d="M40,36 L34,20 L44,32Z" fill="#1c1917"></path>
  <path d="M44,30 L36,14 L50,28Z" fill="#1c1917"></path>
  <path d="M52,26 L48,8 L60,26Z" fill="#1c1917"></path>
  <path d="M64,24 L62,6 L70,24Z" fill="#1c1917"></path>
  <path d="M74,26 L78,8 L68,26Z" fill="#1c1917"></path>
  <path d="M82,30 L90,14 L78,28Z" fill="#1c1917"></path>
  <path d="M88,36 L94,20 L84,32Z" fill="#1c1917"></path>
  <ellipse cx="64" cy="30" rx="26" ry="12" fill="#1c1917"></ellipse>
  
  <path d="M76,12 Q78,20 76,28" stroke="#ef4444" stroke-width="3" fill="none" stroke-linecap="round" opacity="0.8"></path>
  
  <rect x="40" y="43" width="18" height="10" rx="5" fill="#111" stroke="#9ca3af" stroke-width="1.5"></rect>
  <rect x="70" y="43" width="18" height="10" rx="5" fill="#111" stroke="#9ca3af" stroke-width="1.5"></rect>
  <line x1="58" y1="48" x2="70" y2="48" stroke="#9ca3af" stroke-width="1.5"></line>
  <line x1="38" y1="47" x2="32" y2="50" stroke="#9ca3af" stroke-width="1.5"></line>
  <line x1="90" y1="47" x2="96" y2="50" stroke="#9ca3af" stroke-width="1.5"></line>
  
  <path d="M43,44 Q48,42 53,44" stroke="white" stroke-width="1" fill="none" opacity="0.3"></path>
  <path d="M73,44 Q78,42 83,44" stroke="white" stroke-width="1" fill="none" opacity="0.3"></path>
  
  <ellipse cx="64" cy="57" rx="4" ry="3" fill="#f0b888"></ellipse>
  
  <path d="M56,64 Q68,72 74,66" stroke="#b45309" stroke-width="2.5" fill="none" stroke-linecap="round"></path>
  
  <rect x="13" y="106" width="6" height="14" rx="3" fill="#9ca3af"></rect>
  <ellipse cx="16" cy="106" rx="5" ry="6" fill="#6b7280"></ellipse>
  <rect x="15" y="104" width="2" height="2" fill="#d1d5db"></rect>
</svg>