<svg xmlns="http://www.w3.org/2000/svg" viewBox="0 0 128 128" role="img" aria-label="Trollkarlen">
  
  <circle cx="64" cy="64" r="62" fill="#1e0a4e"></circle>
  <radialGradient id="wg" cx="50%" cy="40%" r="55%">
    <stop offset="0%" stop-color="#7c3aed" stop-opacity="0.5"></stop>
    <stop offset="100%" stop-color="#1e0a4e" stop-opacity="0"></stop>
  </radialGradient>
  <circle cx="64" cy="64" r="62" fill="url(#wg)"></circle>
  
  <circle cx="20" cy="25" r="1.5" fill="white" opacity="0.8"></circle>
  <circle cx="35" cy="15" r="1" fill="white" opacity="0.6"></circle>
  <circle cx="95" cy="20" r="1.5" fill="white" opacity="0.9"></circle>
  <circle cx="108" cy="35" r="1" fill="white" opacity="0.7"></circle>
  <circle cx="15" cy="85" r="1" fill="white" opacity="0.5"></circle>
  <circle cx="112" cy="90" r="1.5" fill="white" opacity="0.6"></circle>
  
  <path d="M30,90 Q32,75 40,72 L88,72 Q96,75 98,90 L105,120 L23,120Z" fill="#4c1d95"></path>
  
  <polygon points="50,85 52,80 54,85 59,85 55,88 57,93 52,90 47,93 49,88 45,85" fill="#FCD34D" opacity="0.7" transform="scale(0.7) translate(25,30)"></polygon>
  <circle cx="72" cy="95" r="3" fill="#FCD34D" opacity="0.5"></circle>
  <circle cx="56" cy="105" r="2" fill="#FCD34D" opacity="0.4"></circle>
  
  <path d="M40,72 Q25,80 18,95 Q24,100 32,96 Q36,88 42,82Z" fill="#4c1d95"></path>
  <path d="M88,72 Q103,80 110,95 Q104,100 96,96 Q92,88 86,82Z" fill="#4c1d95"></path>
  
  <ellipse cx="17" cy="97" rx="9" ry="7" fill="#ffd8a8"></ellipse>
  <ellipse cx="111" cy="97" rx="9" ry="7" fill="#ffd8a8"></ellipse>
  
  <circle cx="8" cy="90" r="2" fill="#a78bfa" opacity="0.8"></circle>
  <circle cx="5" cy="98" r="1.5" fill="#60a5fa" opacity="0.7"></circle>
  <circle cx="3" cy="105" r="1" fill="#FCD34D" opacity="0.9"></circle>
  
  <path d="M48,72 Q54,85 64,88 Q74,85 80,72 Q72,80 64,82 Q56,80 48,72Z" fill="white" opacity="0.9"></path>
  
  <path d="M54,78 Q52,95 55,110 L60,112 L64,105 L68,112 L73,110 Q76,95 74,78" fill="white" opacity="0.85"></path>
  
  <rect x="56" y="56" width="16" height="18" rx="4" fill="#ffd8a8"></rect>
  
  <ellipse cx="64" cy="46" rx="22" ry="24" fill="#ffd8a8"></ellipse>
  
  <ellipse cx="55" cy="44" rx="5" ry="4.5" fill="white"></ellipse>
  <ellipse cx="73" cy="44" rx="5" ry="4.5" fill="white"></ellipse>
  <circle cx="56" cy="45" r="3.5" fill="#1e3a8a"></circle>
  <circle cx="74" cy="45" r="3.5" fill="#1e3a8a"></circle>
  <circle cx="57" cy="43.5" r="1.2" fill="white"></circle>
  <circle cx="75" cy="43.5" r="1.2" fill="white"></circle>
  
  <path d="M49,39 Q55,35 61,38" stroke="white" stroke-width="3" fill="none" stroke-linecap="round"></path>
  <path d="M67,38 Q73,35 79,39" stroke="white" stroke-width="3" fill="none" stroke-linecap="round"></path>
  
  <path d="M62,50 Q60,56 64,58 Q68,56 66,50" fill="#f0b888" stroke="none"></path>
  
  <path d="M56,64 Q64,70 72,64" stroke="#c07840" stroke-width="2" fill="none" stroke-linecap="round"></path>
  
  <ellipse cx="64" cy="24" rx="28" ry="6" fill="#4c1d95"></ellipse>
  <path d="M42,24 L55,−15 L73,−15 L86,24Z" fill="#5b21b6"></path>
  
  <ellipse cx="64" cy="24" rx="28" ry="6" fill="none" stroke="#7c3aed" stroke-width="1.5"></ellipse>
  
  <polygon points="64,−5 66,−10 68,−5 73,−5 69,−2 71,3 66,0 61,3 63,−2 59,−5" fill="#FCD34D" transform="scale(0.7) translate(28,12)"></polygon>
  <circle cx="72" cy="10" r="2" fill="#FCD34D" opacity="0.8"></circle>
  <circle cx="56" cy="16" r="1.5" fill="#a78bfa" opacity="0.9"></circle>
</svg>