<svg xmlns="http://www.w3.org/2000/svg" viewBox="0 0 128 128" role="img" aria-label="Fen">
  <!-- Background – enchanted garden -->
  <circle cx="64" cy="64" r="62" fill="#831843"/>
  <radialGradient id="fbg2" cx="50%" cy="40%" r="55%">
    <stop offset="0%" stop-color="#f9a8d4" stop-opacity="0.6"/>
    <stop offset="100%" stop-color="#831843" stop-opacity="0"/>
  </radialGradient>
  <circle cx="64" cy="64" r="62" fill="url(#fbg2)"/>
  <!-- Magic sparkles everywhere -->
  <path d="M14,30 L15.5,24 L17,30 L23,31.5 L17,33 L15.5,39 L14,33 L8,31.5Z" fill="#fde68a" opacity="0.7" transform="scale(0.7) translate(8,14)"/>
  <path d="M104,20 L106,14 L108,20 L114,21.5 L108,23 L106,29 L104,23 L98,21.5Z" fill="#fde68a" opacity="0.6" transform="scale(0.6) translate(70,10)"/>
  <circle cx="20" cy="85" r="2" fill="#fde68a" opacity="0.6"/>
  <circle cx="108" cy="90" r="1.5" fill="#fde68a" opacity="0.7"/>
  <circle cx="110" cy="40" r="2" fill="#fbbf24" opacity="0.5"/>
  <circle cx="18" cy="45" r="1.5" fill="#fbbf24" opacity="0.6"/>
  <!-- Fairy wings (translucent) -->
  <!-- Left upper wing -->
  <path d="M46,62 Q20,44 16,24 Q32,30 48,52Z" fill="#fbcfe8" stroke="#f9a8d4" stroke-width="1" opacity="0.8"/>
  <!-- Left lower wing -->
  <path d="M46,68 Q18,70 14,90 Q30,86 48,74Z" fill="#fce7f3" stroke="#f9a8d4" stroke-width="1" opacity="0.7"/>
  <!-- Right upper wing -->
  <path d="M82,62 Q108,44 112,24 Q96,30 80,52Z" fill="#fbcfe8" stroke="#f9a8d4" stroke-width="1" opacity="0.8"/>
  <!-- Right lower wing -->
  <path d="M82,68 Q110,70 114,90 Q98,86 80,74Z" fill="#fce7f3" stroke="#f9a8d4" stroke-width="1" opacity="0.7"/>
  <!-- Wing veins -->
  <path d="M46,62 Q30,46 22,30" fill="none" stroke="#f472b6" stroke-width="0.8" opacity="0.5"/>
  <path d="M46,62 Q26,52 20,38" fill="none" stroke="#f472b6" stroke-width="0.8" opacity="0.4"/>
  <path d="M82,62 Q98,46 106,30" fill="none" stroke="#f472b6" stroke-width="0.8" opacity="0.5"/>
  <!-- Body (tiny fairy) -->
  <path d="M46,128 Q50,98 56,86 Q60,82 64,82 Q68,82 72,86 Q78,98 82,128Z" fill="#f472b6"/>
  <!-- Fairy dress (petal-like) -->
  <path d="M52,90 Q64,84 76,90 L74,110 Q64,106 54,110Z" fill="#fbcfe8"/>
  <!-- Petal details -->
  <path d="M50,95 Q56,88 60,94" fill="none" stroke="#f9a8d4" stroke-width="1.5"/>
  <path d="M68,94 Q72,88 78,95" fill="none" stroke="#f9a8d4" stroke-width="1.5"/>
  <!-- Arms -->
  <path d="M54,84 Q40,80 30,90 Q36,96 44,92 Q50,88 54,84Z" fill="#fcd34d"/>
  <path d="M74,84 Q88,80 98,90 Q92,96 84,92 Q78,88 74,84Z" fill="#fcd34d"/>
  <ellipse cx="28" cy="91" rx="8" ry="6" fill="#fcd34d"/>
  <ellipse cx="100" cy="91" rx="8" ry="6" fill="#fcd34d"/>
  <!-- Magic wand -->
  <line x1="100" y1="90" x2="116" y2="70" stroke="#fbbf24" stroke-width="2.5" stroke-linecap="round"/>
  <!-- Wand star tip -->
  <path d="M116,70 L118,63 L120,70 L127,72 L120,74 L118,81 L116,74 L109,72Z" fill="#fbbf24" transform="scale(0.6) translate(80,52)"/>
  <circle cx="116" cy="68" r="5" fill="#fde68a"/>
  <circle cx="116" cy="68" r="3" fill="#f59e0b"/>
  <!-- Sparkles from wand -->
  <circle cx="110" cy="58" r="2" fill="#fde68a" opacity="0.8"/>
  <circle cx="118" cy="55" r="1.5" fill="#fbbf24" opacity="0.6"/>
  <circle cx="106" cy="52" r="1" fill="#fde68a" opacity="0.5"/>
  <!-- Neck -->
  <rect x="58" y="64" width="12" height="20" rx="5" fill="#fcd34d"/>
  <!-- Head (tiny, cute) -->
  <ellipse cx="64" cy="52" rx="22" ry="23" fill="#fcd34d"/>
  <!-- Flower crown -->
  <circle cx="52" cy="32" r="5" fill="#f472b6"/>
  <circle cx="60" cy="28" r="5" fill="#fb923c"/>
  <circle cx="68" cy="28" r="5" fill="#fbbf24"/>
  <circle cx="76" cy="32" r="5" fill="#a78bfa"/>
  <circle cx="64" cy="26" r="4" fill="#34d399"/>
  <!-- Crown centers -->
  <circle cx="52" cy="32" r="2" fill="#fde68a"/>
  <circle cx="60" cy="28" r="2" fill="#fde68a"/>
  <circle cx="68" cy="28" r="2" fill="#fde68a"/>
  <circle cx="76" cy="32" r="2" fill="#fde68a"/>
  <circle cx="64" cy="26" r="2" fill="#fde68a"/>
  <!-- Hair -->
  <path d="M42,36 Q38,48 38,58 Q44,54 46,46 Q44,40 42,36Z" fill="#fbbf24"/>
  <path d="M86,36 Q90,48 90,58 Q84,54 82,46 Q84,40 86,36Z" fill="#fbbf24"/>
  <ellipse cx="64" cy="34" rx="22" ry="10" fill="#fbbf24"/>
  <!-- Eyes (big sparkly) -->
  <ellipse cx="52" cy="50" rx="7.5" ry="7" fill="white"/>
  <ellipse cx="76" cy="50" rx="7.5" ry="7" fill="white"/>
  <circle cx="52" cy="50" r="5.5" fill="#a855f7"/>
  <circle cx="76" cy="50" r="5.5" fill="#a855f7"/>
  <circle cx="52" cy="50" r="3" fill="#111"/>
  <circle cx="76" cy="50" r="3" fill="#111"/>
  <circle cx="53.5" cy="48" r="2" fill="white"/>
  <circle cx="77.5" cy="48" r="2" fill="white"/>
  <!-- Eyelashes -->
  <path d="M45,44 Q50,40 56,44" stroke="#111" stroke-width="1.2" fill="none" stroke-linecap="round"/>
  <path d="M72,44 Q78,40 84,44" stroke="#111" stroke-width="1.2" fill="none" stroke-linecap="round"/>
  <!-- Blush -->
  <ellipse cx="42" cy="56" rx="7" ry="4.5" fill="#fda4af" opacity="0.5"/>
  <ellipse cx="86" cy="56" rx="7" ry="4.5" fill="#fda4af" opacity="0.5"/>
  <!-- Nose (tiny) -->
  <circle cx="64" cy="56" r="2.5" fill="#f0b888"/>
  <!-- Mouth -->
  <path d="M57,62 Q64,69 71,62" stroke="#e11d48" stroke-width="2.5" fill="#fda4af" stroke-linecap="round"/>
</svg>
